<svg width="1624" height="156" viewBox="0 0 1624 156" fill="none" xmlns="http://www.w3.org/2000/svg">
<path d="M1018.1 105.336L1041.35 129H1000.96L977.706 105.336H946.97V129H909.434V58.008L894.066 42.64H1020.68C1024.58 42.64 1027.93 44.0453 1030.75 46.856C1033.56 49.6667 1034.96 53.0213 1034.96 56.92V91.056C1034.96 94.9547 1033.56 98.3093 1030.75 101.12C1027.93 103.931 1024.58 105.336 1020.68 105.336H1018.1ZM996.338 83.712V64.264H946.97V83.712H996.338ZM1143.62 42.64L1193.26 129H1151.37L1143.62 114.312H1096.97L1089.22 129H1047.33L1091.39 52.432L1081.74 42.64H1143.62ZM1106.62 95.816H1133.96L1121.58 72.56H1119L1106.62 95.816ZM1319.06 64.264H1241.54V107.376H1319.06V129H1218.29C1214.3 129 1210.9 127.595 1208.09 124.784C1205.37 121.973 1204.01 118.619 1204.01 114.72V58.008L1188.64 42.64H1319.06V64.264ZM1462.34 62.224H1380.6V76.368H1457.17V95.272H1380.6V109.416H1462.34V129H1343.07V58.008L1327.7 42.64H1462.34V62.224ZM1595.83 105.336L1619.09 129H1578.7L1555.44 105.336H1524.7V129H1487.17V58.008L1471.8 42.64H1598.42C1602.31 42.64 1605.67 44.0453 1608.48 46.856C1611.29 49.6667 1612.7 53.0213 1612.7 56.92V91.056C1612.7 94.9547 1611.29 98.3093 1608.48 101.12C1605.67 103.931 1602.31 105.336 1598.42 105.336H1595.83ZM1574.07 83.712V64.264H1524.7V83.712H1574.07Z" fill="white"/>
<path d="M113.593 103.84L134.401 129H96.4574L80.0014 107.648H44.2334V129H9.96141V41.824H98.6334C114.545 41.824 128.009 53.656 130.049 69.432C130.457 72.968 130.457 76.504 130.049 79.904C128.825 90.104 122.569 99.08 113.593 103.84ZM85.7134 83.848C90.7454 83.712 94.6894 79.632 94.6894 74.736C94.6894 69.704 90.7454 65.624 85.7134 65.624H44.2334V83.848H85.7134ZM278.514 69.432C280.01 80.04 280.01 90.784 278.65 101.256C276.61 117.168 263.146 129 247.098 129H177.602C161.69 129 148.226 117.168 146.186 101.392C144.69 90.784 144.69 80.04 146.186 69.432C148.226 53.656 161.69 41.824 177.602 41.824H247.098C263.01 41.824 276.474 53.656 278.514 69.432ZM243.018 95.68C244.378 88.88 244.378 81.944 243.018 75.144C241.93 69.568 237.034 65.624 231.322 65.624C220.986 65.624 203.714 65.624 193.242 65.624C187.666 65.624 182.77 69.568 181.682 75.144C180.186 81.944 180.322 88.88 181.682 95.68C182.77 101.256 187.666 105.2 193.378 105.2C203.714 105.2 220.986 105.2 231.322 105.2C237.034 105.2 241.93 101.256 243.018 95.68ZM383.083 95.272H423.203C423.067 97.312 422.795 99.352 422.523 101.256C420.483 117.168 407.019 129 391.107 129H325.555C309.643 129 296.179 117.168 294.139 101.392C292.643 90.784 292.643 80.04 294.139 69.432C296.179 53.656 309.643 41.824 325.555 41.824H391.107C407.019 41.824 420.483 53.656 422.523 69.432C422.795 71.472 423.067 73.512 423.203 75.416H383.083C383.083 75.416 383.083 75.28 383.083 75.144C381.995 69.568 377.099 65.624 371.387 65.624C361.051 65.624 351.667 65.624 341.331 65.624C335.619 65.624 330.723 69.568 329.635 75.144C328.275 81.944 328.275 88.88 329.635 95.68C330.859 101.256 335.619 105.2 341.331 105.2C351.667 105.2 361.051 105.2 371.387 105.2C377.099 105.2 381.995 101.256 383.083 95.68C383.083 95.544 383.083 95.408 383.083 95.272ZM513.613 79.224L564.477 129H520.549L490.493 97.04L473.085 110.504V129H438.813V41.824H473.085V76.776L515.789 41.824H562.029L513.613 79.224ZM689.17 64.4H609.882V74.736H689.17V96.088H609.882V106.424H689.17V129H575.61V41.824H689.17V64.4ZM701.366 41.824H817.374V65.624H776.438V129H742.166V65.624H701.366V41.824Z" fill="white"/>
</svg>
